<svg preserveAspectRatio="none" width="100%" height="100%" overflow="visible" style="display: block;" viewBox="0 0 102.669 63.9999" fill="none" xmlns="http://www.w3.org/2000/svg">
<g id="Group">
<path id="Vector" fill-rule="evenodd" clip-rule="evenodd" d="M60.0013 0.0386655C60.0013 0.070456 59.8829 0.115135 59.7376 0.136615C59.5929 0.158954 59.4745 0.199336 59.4745 0.226831C59.4745 0.254325 59.3561 0.294708 59.2108 0.317047C59.0661 0.339386 58.9469 0.383206 58.9469 0.414137C58.9469 0.445068 58.9071 0.469985 58.8581 0.469985C58.7499 0.469985 56.3231 1.28623 56.1811 1.36957C56.1178 1.40471 56.0476 1.42523 55.9756 1.42971C55.8846 1.44085 55.7965 1.46943 55.716 1.51392C55.5901 1.57274 55.4574 1.6149 55.3211 1.63936C55.1892 1.6617 55.0818 1.70552 55.0818 1.73559C55.0818 1.76567 55.0226 1.79058 54.9499 1.79058C54.849 1.79891 54.7507 1.82753 54.6607 1.87478C54.5745 1.92118 54.4164 1.97789 54.3099 2.00109C54.2024 2.02428 54.0891 2.06467 54.0562 2.08958C54.0248 2.11536 53.9074 2.15575 53.7949 2.18066C53.6947 2.20141 53.5968 2.2319 53.5023 2.27173C53.3797 2.33531 52.3532 2.68158 52.0682 2.75547C51.9405 2.78984 51.8086 2.83624 51.7748 2.86115C51.741 2.88692 51.5161 2.96769 51.2751 3.04244C51.0913 3.09595 50.9106 3.15992 50.7339 3.23404C50.6825 3.26342 50.6259 3.28239 50.5673 3.2899C50.4808 3.30559 50.3966 3.33274 50.3171 3.37066C50.2156 3.41534 49.7768 3.56913 49.3421 3.71262C49.0475 3.80734 48.7546 3.90759 48.4636 4.01334C48.2129 4.12083 47.9531 4.20481 47.6874 4.26423C47.5352 4.2986 47.4092 4.34929 47.4092 4.37765C47.4092 4.40686 47.35 4.43005 47.2781 4.43005C47.1772 4.43838 47.0789 4.467 46.9889 4.51425C46.9027 4.56065 46.7437 4.61736 46.6372 4.64142C46.5306 4.66462 46.4173 4.70414 46.3843 4.72992C46.3522 4.7557 46.2338 4.79607 46.1205 4.82013C46.0289 4.83632 45.9403 4.86644 45.8576 4.90949C45.8254 4.93526 45.7062 4.97565 45.5937 4.99971C45.5018 5.0161 45.4129 5.04651 45.3299 5.08992C45.2978 5.1157 45.1803 5.15608 45.0686 5.18014C44.9683 5.20098 44.8703 5.23207 44.7761 5.27294C44.6881 5.31933 44.2789 5.46196 43.9246 5.56936C43.5711 5.67676 43.161 5.81939 43.0756 5.86579C42.9995 5.90703 42.986 6.43543 42.9725 9.97106L42.9573 14.0291H40.4172C38.1545 14.0291 37.872 14.0394 37.8408 14.1236C37.8205 14.1769 37.8044 18.7539 37.8044 24.2948V34.3681H39.5615L39.5759 25.1437L39.5911 15.9193H42.9285L42.9429 25.1437L42.959 34.3681H60.1772V29.2086C60.1772 25.6747 60.1966 24.0492 60.2381 24.0492C60.2719 24.0492 60.3699 24.0998 60.4579 24.1608C60.8469 24.4375 61.1826 24.6488 61.2341 24.6488C61.2646 24.6488 61.29 24.6712 61.29 24.6987C61.29 24.727 61.3492 24.782 61.4219 24.8215C61.7753 25.0149 62.7232 25.6318 62.7444 25.6825C62.7553 25.7082 62.7993 25.7288 62.8424 25.7288C62.8855 25.7288 62.9624 25.7718 63.0132 25.8234C63.0953 25.9067 63.1063 26.3818 63.1063 30.1426V34.3681H64.8624V24.8499L64.4303 24.5689C64.1928 24.4143 63.9805 24.2888 63.9594 24.2888C63.9382 24.2888 63.8884 24.2605 63.8495 24.2253C63.7455 24.1316 62.8805 23.5688 62.8416 23.5688C62.823 23.5688 62.7756 23.5405 62.7367 23.5061C62.5828 23.3687 60.824 22.2491 60.7615 22.2491C60.7472 22.2483 60.7335 22.2436 60.7216 22.2356C60.7097 22.2276 60.7001 22.2165 60.6938 22.2036C60.6651 22.1357 60.3074 21.8891 60.2381 21.8891C60.1958 21.8891 60.173 18.4609 60.1619 10.96C60.1509 2.28033 60.1324 0.0249182 60.0749 0.00515656C60.0343 -0.00859069 60.0013 0.00601578 60.0013 0.0386655ZM58.415 11.6147C58.4125 16.6548 58.3973 20.7438 58.3803 20.6999C58.3634 20.657 58.2924 20.596 58.224 20.5642C58.1265 20.5166 58.0322 20.4625 57.9415 20.4027C57.7475 20.2773 57.5522 20.1542 57.3555 20.0332C57.1984 19.9406 57.0455 19.8408 56.8973 19.7342C56.8643 19.6947 56.652 19.5666 56.4238 19.4489C56.3028 19.3862 56.2428 19.3854 56.1176 19.4447C56.0313 19.4859 55.9613 19.5391 55.9603 19.5641C55.9603 19.589 55.9223 19.6088 55.8758 19.6088C55.8152 19.6158 55.7584 19.6422 55.7135 19.6844C55.639 19.7531 55.519 19.8304 55.2281 19.9937C55.1764 20.0209 55.1274 20.0531 55.0818 20.0899C55.0268 20.1313 54.9678 20.1673 54.9059 20.1973C54.6777 20.3158 54.517 20.4164 54.4146 20.5032C54.3285 20.577 54.3208 20.3142 54.3208 17.368V14.1528L52.6948 14.1202C51.094 14.0927 49.493 14.0719 47.892 14.0574L44.7152 14.0274V10.6765C44.7152 8.06448 44.7321 7.31182 44.7888 7.26886C44.8285 7.23793 45.1777 7.10819 45.5641 6.98017C45.9514 6.85215 46.2939 6.72843 46.3252 6.70437C46.3581 6.68031 46.4833 6.64164 46.6042 6.61845C46.7251 6.59524 46.824 6.55572 46.824 6.52995C46.824 6.50417 46.9424 6.46551 47.087 6.44317C47.2324 6.42083 47.3508 6.38044 47.3508 6.35295C47.3508 6.32545 47.4464 6.28421 47.5631 6.26274C47.6797 6.23953 47.8184 6.19744 47.8708 6.16823C47.9537 6.12096 49.4783 5.58826 50.2207 5.34683C50.3652 5.29957 50.5251 5.23942 50.5741 5.21279C50.6232 5.18702 50.7483 5.14577 50.8514 5.12257C50.9547 5.09938 51.0544 5.05555 51.073 5.02549C51.0908 4.99455 51.1635 4.96963 51.2337 4.96963C51.3337 4.96111 51.4311 4.93249 51.5203 4.88543C51.6066 4.83903 51.7638 4.78233 51.8695 4.75827C51.9752 4.73421 52.1021 4.69125 52.1511 4.66376C52.201 4.63541 52.6897 4.46357 53.2368 4.28142C53.7847 4.09926 54.2752 3.92484 54.3276 3.89477C54.38 3.86298 54.5187 3.82002 54.6354 3.79768C54.752 3.77449 54.8467 3.73238 54.8467 3.70317C54.8467 3.67395 54.9059 3.6499 54.9795 3.6499C55.0827 3.64043 55.1829 3.61036 55.2747 3.5614C55.3643 3.51329 55.5292 3.45658 55.6416 3.43509C55.7532 3.41362 55.8572 3.37495 55.8733 3.34832C55.8893 3.32254 56.0077 3.28216 56.1354 3.25982C56.2648 3.23748 56.3848 3.19452 56.4026 3.1653C56.4212 3.13437 56.4762 3.11032 56.526 3.11032C56.5759 3.11032 56.6994 3.07251 56.8008 3.02611C56.9869 2.94191 57.4215 2.78812 57.7462 2.69102C57.8435 2.66181 58.0278 2.59651 58.1562 2.54668C58.2389 2.51354 58.322 2.48204 58.4058 2.45217C58.4142 2.45131 58.4176 6.57377 58.415 11.6147ZM52.5028 18.784L52.5012 21.6794L51.9617 22.0077C51.6641 22.1881 51.4121 22.3573 51.4019 22.3823C51.3909 22.408 51.3563 22.4286 51.3241 22.4286C51.292 22.4286 51.0239 22.579 50.7289 22.762C50.433 22.9459 50.1395 23.1281 50.0752 23.1667C50.0118 23.2062 49.7827 23.3531 49.5662 23.4932C49.3497 23.6341 49.1595 23.7484 49.1434 23.7484C49.1265 23.7484 48.9963 23.83 48.8534 23.9289C48.7096 24.0276 48.5659 24.1092 48.5321 24.1092C48.4991 24.1092 48.4365 24.1428 48.3926 24.184C48.3182 24.2536 48.253 24.2957 47.9216 24.4839C47.8568 24.5191 47.798 24.5646 47.7474 24.6187C47.7237 24.6514 47.7034 26.454 47.7034 28.6236L47.7026 32.5681H44.7152V15.8892H52.5046L52.5028 18.784ZM56.3797 21.5162C56.3907 21.5411 56.7552 21.7868 57.1898 22.0617C57.6245 22.3367 58.0793 22.6306 58.2003 22.7139L58.4201 22.8651V32.5681H54.3208V27.6037L54.3217 22.6391L54.7656 22.3686C55.0108 22.2208 55.2796 22.0514 55.3659 21.9948C55.4505 21.9372 55.5604 21.871 55.6086 21.8478C55.7195 21.7841 55.8271 21.7144 55.9307 21.639C56.1625 21.475 56.3426 21.4259 56.3797 21.5162ZM52.5046 28.2179V32.5681H49.518V25.6902L49.7573 25.5295C49.8892 25.4411 50.0211 25.3689 50.0499 25.3689C50.0795 25.3689 50.104 25.3473 50.104 25.3216C50.104 25.2958 50.1758 25.2426 50.2646 25.203C50.3813 25.1474 50.4938 25.083 50.6012 25.0105C50.6984 24.9444 50.8363 24.8585 50.909 24.8198C50.9816 24.7812 51.0408 24.727 51.0408 24.6995C51.0408 24.6712 51.0704 24.648 51.1059 24.648C51.1872 24.648 51.8822 24.2227 51.9093 24.1565C51.9203 24.1307 51.96 24.1084 51.9972 24.1076C52.0344 24.1066 52.1317 24.0534 52.212 23.989C52.2923 23.9245 52.3912 23.8704 52.4318 23.8704C52.4893 23.8687 52.5046 24.7778 52.5046 28.2179Z" fill="var(--fill-0, #2D2A26)"/>
<path id="Vector_2" d="M5.93849 48.06C5.41241 48.4686 4.76831 48.6894 4.10609 48.6881C2.52834 48.6881 1.43499 47.566 1.43499 45.9283C1.43499 44.2237 2.51733 43.1694 3.95221 43.1694C4.72427 43.1694 5.23235 43.3825 5.69581 43.697L6.30286 42.6763C5.7956 42.2046 4.95677 41.8798 3.95221 41.8798C1.40196 41.8798 0 43.6738 0 45.9283C0 48.3737 1.62357 49.9777 3.98523 49.9777C4.98968 49.9777 5.97222 49.6186 6.45758 49.092L5.93849 48.06ZM6.95737 43.2931H9.46358V49.8549H10.8208V43.2923H13.327V42.0018H6.95737V43.2931ZM15.9728 49.8549V47.017C16.3034 47.0505 16.7457 47.0505 16.9773 47.0505C18.8206 47.0505 19.8032 45.839 19.8032 44.5047C19.8032 43.2141 19.0853 41.9803 16.8116 41.9803C16.2704 41.9803 15.0452 42.0027 14.6148 42.0027V49.8549H15.9728ZM16.9443 43.2708C17.8711 43.2708 18.3683 43.6746 18.3683 44.4935C18.3683 45.3681 17.7391 45.7608 16.9333 45.7608C16.6239 45.7608 16.2924 45.7385 15.9728 45.7041V43.2931C16.3363 43.282 16.6678 43.2708 16.9443 43.2708ZM20.91 45.9283C20.91 48.3737 22.6324 49.9777 24.9282 49.9777C27.2247 49.9777 28.9573 48.2843 28.9573 45.9283C28.9573 43.4831 27.2239 41.8798 24.9282 41.8798C22.5555 41.8798 20.91 43.6515 20.91 45.9283ZM22.345 45.9283C22.345 44.3019 23.4492 43.1694 24.9282 43.1694C26.3859 43.1694 27.5223 44.3019 27.5223 45.9283C27.5223 47.4767 26.5508 48.6881 24.9282 48.6881C23.4823 48.6881 22.345 47.4989 22.345 45.9283ZM31.8313 49.8549L35.8825 44.2795V49.8549H37.2404V42.0027H36.0482L31.997 47.5891V42.0027H30.6391V49.8549H31.8313ZM31.8652 40.0961C31.9413 41.0498 32.7479 41.7002 34.0721 41.7002C35.2863 41.7002 36.1919 41.0609 36.225 40.0961H34.9557C34.9109 40.5781 34.5693 40.7465 34.0721 40.7465C33.52 40.7465 33.2223 40.5334 33.1335 40.0961H31.8652ZM39.4922 49.8549H40.8501V45.8054L44.0066 49.8549H45.729L42.3511 45.6594L45.5304 42.0027H43.8967L40.8501 45.7273V42.0027H39.4922V49.8549ZM46.4452 45.9283C46.4452 48.3737 48.1676 49.9777 50.4634 49.9777C52.7591 49.9777 54.4925 48.2843 54.4925 45.9283C54.4925 43.4831 52.7591 41.8798 50.4634 41.8798C48.0899 41.8798 46.4452 43.6515 46.4452 45.9283ZM47.8802 45.9283C47.8802 44.3019 48.9844 43.1694 50.4634 43.1694C51.9203 43.1694 53.0576 44.3019 53.0576 45.9283C53.0576 47.4767 52.086 48.6881 50.4634 48.6881C49.0175 48.6881 47.8802 47.4989 47.8802 45.9283ZM56.1743 49.8549H57.5322V44.2117L59.9937 47.6665H60.1925L62.6319 44.1782V49.854H63.9789V42.0018H62.6978L60.1815 45.6706L57.5433 42.0018H56.1743V49.8549ZM71.036 49.8549H72.3939V42.0027H66.2349V49.8549H67.592V43.2923H71.036V49.8549ZM79.2041 49.8549H80.5509V42.0027H75.6832L75.5724 43.5733C75.2309 48.3074 74.447 48.5652 73.8509 48.4861L73.8179 49.8549C75.3407 50.0783 76.3453 49.3394 76.7985 44.7736L76.9525 43.2931H79.2041V49.8549ZM82.7978 49.8549H87.3791V48.5644H84.1556V46.534H86.9375V45.2452H84.1556V43.2923H87.2678V42.0018H82.7978V49.8549ZM89.2577 49.8549H90.6155V45.8054L93.7727 49.8549H95.4951L92.1166 45.6594L95.2963 42.0027H93.6626L90.6155 45.7273V42.0027H89.2577V49.8549ZM102.149 48.0591C101.624 48.4681 100.98 48.6893 100.317 48.6881C98.7387 48.6881 97.6461 47.566 97.6461 45.9283C97.6461 44.2237 98.7269 43.1694 100.163 43.1694C100.935 43.1694 101.444 43.3825 101.907 43.697L102.514 42.6763C102.006 42.2046 101.167 41.8798 100.163 41.8798C97.6129 41.8798 96.2113 43.6738 96.2113 45.9283C96.2113 48.3737 97.8331 49.9777 100.196 49.9777C101.201 49.9777 102.182 49.6186 102.669 49.092L102.149 48.0591ZM28.8525 63.8762V61.0383C29.1832 61.0727 29.6253 61.0727 29.8571 61.0727C31.7004 61.0727 32.6829 59.8612 32.6829 58.526C32.6829 57.2363 31.9651 56.0025 29.6914 56.0025C29.1502 56.0025 27.9249 56.0249 27.4945 56.0249V63.8762H28.8525ZM29.8233 57.2922C30.7509 57.2922 31.2471 57.696 31.2471 58.5148C31.2471 59.3895 30.6181 59.7821 29.8122 59.7821C29.5036 59.7821 29.1722 59.7598 28.8525 59.7263V57.3145C29.2161 57.3033 29.5476 57.2922 29.8233 57.2922ZM33.7898 59.9505C33.7898 62.3959 35.5122 63.9999 37.8079 63.9999C40.1037 63.9999 41.8371 62.3065 41.8371 59.9505C41.8371 57.5053 40.1037 55.9011 37.8079 55.9011C35.4344 55.9011 33.7898 57.6737 33.7898 59.9505ZM35.2247 59.9505C35.2247 58.3241 36.329 57.1916 37.8079 57.1916C39.2648 57.1916 40.4021 58.3241 40.4021 59.9505C40.4021 61.4989 39.4306 62.7103 37.8079 62.7103C36.362 62.7103 35.2247 61.5211 35.2247 59.9505ZM48.884 62.0813C48.358 62.4903 47.7139 62.7115 47.0517 62.7103C45.473 62.7103 44.3796 61.5882 44.3796 59.9505C44.3796 58.2459 45.462 57.1916 46.8968 57.1916C47.6689 57.1916 48.1771 57.4047 48.6405 57.7184L49.2476 56.6976C48.7402 56.2268 47.9014 55.9011 46.8968 55.9011C44.3467 55.9011 42.9448 57.6968 42.9448 59.9505C42.9448 62.3959 44.5682 63.9999 46.9299 63.9999C47.9344 63.9999 48.917 63.6408 49.4023 63.1142L48.884 62.0813ZM56.2277 62.0813C55.7018 62.4903 55.0577 62.7113 54.3953 62.7103C52.8167 62.7103 51.7234 61.5882 51.7234 59.9505C51.7234 58.2459 52.8057 57.1916 54.2406 57.1916C55.0135 57.1916 55.5208 57.4047 55.9842 57.7184L56.5921 56.6976C56.084 56.2268 55.2452 55.9011 54.2406 55.9011C51.6904 55.9011 50.2884 57.6968 50.2884 59.9505C50.2884 62.3959 51.912 63.9999 54.2736 63.9999C55.2781 63.9999 56.2606 63.6408 56.746 63.1142L56.2277 62.0813ZM59.3986 63.8771L63.4497 58.3017V63.8762H64.8076V56.0249H63.6154L59.5644 61.6105V56.0249H58.2063V63.8762L59.3986 63.8771ZM68.2516 63.8771L72.3028 58.3017V63.8762H73.6607V56.0249H72.4685L68.4173 61.6105V56.0249H67.0594V63.8762L68.2516 63.8771Z" fill="var(--fill-0, #2D2A26)"/>
</g>
</svg>
