<svg preserveAspectRatio="none" overflow="visible" style="display: block;" width="516.504" height="205" viewBox="0 0 516.504 205" fill="none" xmlns="http://www.w3.org/2000/svg">
<g id="image 36 [Vectorized]" clip-path="url(#clip0_0_4)">
<path id="Vector" d="M274.632 12.699C276.672 12.3742 279.645 12.5619 281.66 12.9413C298.22 16.0588 301.486 32.2791 299.186 46.5835C296.101 65.7887 283.063 80.1294 262.513 76.4603C256.332 75.3566 252.98 72.3825 249.486 67.3977C248.47 73.9499 246.608 81.3599 245.328 88.0616C244.746 90.4358 243.885 94.4471 243.648 96.8029C237.875 96.7066 232.1 96.7157 226.327 96.8302C232.134 70.7637 237.194 44.3469 242.853 18.2361C243.148 16.8714 243.433 15.5149 243.753 14.155C249.179 14.061 254.723 14.1613 260.178 14.1098C259.716 16.4946 259 18.4453 258.809 20.9595C264.069 15.4772 267.071 13.7556 274.632 12.699ZM267.411 63.7591C279.663 60.6486 284.218 45.9599 282.046 34.8009C280.737 28.0657 274.447 25.991 268.422 26.5243C263.759 27.5243 260.839 29.4223 258.231 33.5449C254.463 39.5026 252.534 47.8783 253.767 54.839C254.864 61.0286 261.371 64.9667 267.411 63.7591Z" fill="#111415"/>
<path id="Vector_2" d="M344.153 12.7021C344.271 12.6804 344.395 12.6565 344.521 12.6476C354.604 11.9396 372.371 12.8853 374.851 25.3437C375.721 29.7102 373.928 37.5852 372.891 42.0901L370.059 54.9668C368.304 62.8755 366.753 67.3177 367.496 75.4796C362.505 75.1145 355.946 75.2925 350.879 75.3889L350.814 69.9855C348.261 72.2538 344.907 74.9433 341.535 75.7784C330.842 78.4268 316.741 77.8257 312.928 65.4886C311.97 62.2802 312.121 56.8622 313.203 53.6768C317.48 41.1609 332.786 39.9519 343.984 38.8575C347.366 38.3817 352.019 38.6301 355.035 36.9255C360.586 33.7887 359.454 25.937 353.144 24.6402C349.399 23.8704 344.935 23.8727 341.626 25.7713C338.721 27.4388 337.49 29.8027 336.698 32.8618C332.701 33.0595 324.121 33.0797 320.3 32.7766C323.286 18.9029 330.564 14.3118 344.153 12.7021ZM331.871 64.0085C335.76 66.1187 338.204 66.703 342.662 65.4846C346.783 64.3584 349.896 61.4315 351.918 57.7415C353.204 55.3957 355.088 49.8539 355.146 47.1821L354.897 46.942C347.535 50.3753 333.989 47.0994 330.007 55.8178C328.892 58.2518 329.853 62.194 331.871 64.0085Z" fill="#111415"/>
<path id="Vector_3" d="M417.25 12.6918C417.321 12.6804 417.392 12.6691 417.462 12.6577C427.169 12.0003 439.878 13.026 445.151 22.5006C446.929 25.6953 446.768 28.9541 447.116 32.3171C441.777 32.2278 436.18 32.3156 430.821 32.3171C430.831 31.9671 430.829 31.6166 430.814 31.2666C430.738 29.2272 429.858 27.0728 428.33 25.6739C426.269 23.787 423.462 23.7007 420.829 23.7832C417.868 23.8759 415.311 24.5251 413.238 26.7695C412.426 27.6505 411.402 29.4645 411.626 30.6052C412.728 36.1647 425.737 37.5301 430.42 39.5133C433.936 41.0022 435.651 41.4485 438.453 43.8659C441.782 46.7412 443.295 50.52 443.583 54.7715C443.971 59.7866 442.311 64.7449 438.98 68.5151C433.578 74.6308 425.432 76.3729 417.704 76.8674C416.771 76.9181 415.836 76.942 414.9 76.9393C407.155 76.8669 399.135 75.8353 393.408 70.0076C389.105 65.632 388.674 60.8239 388.765 55.0454L404.247 55.0391C404.804 57.8047 405.251 60.9142 407.614 62.6962C411.939 66.1038 421.997 66.3151 425.472 61.5643C429.575 55.9581 422.91 52.5231 418.408 51.1985C414.706 50.1087 410.607 48.8863 407.084 47.6018C404.87 46.8174 402.784 45.7089 400.898 44.3127C390.709 36.6962 394.822 20.3125 405.71 15.7786C410.262 13.8831 412.416 13.3356 417.25 12.6918Z" fill="#111415"/>
<path id="Vector_4" d="M426.095 157.161C430.765 156.859 438.616 157.109 439.819 162.838C441.267 169.734 440.689 178.137 437.555 184.483C434.021 191.632 425.785 193.401 419.031 189.786C408.93 183.085 418.299 160.052 434.861 168.818C434.67 166.703 434.513 165.816 433.825 163.817C431.34 162.011 427.545 161.827 424.594 161.743C424.904 160.625 425.492 157.915 426.095 157.161ZM422.35 184.591C423.946 185.728 424.551 186.29 426.566 186.217C427.313 185.96 428.264 185.644 428.879 185.154C432.831 182.022 437.015 171.785 428.294 172.037C422.854 173.733 420.794 179.408 422.35 184.591Z" fill="#111415"/>
<path id="Vector_5" d="M477.746 167.017C480.178 166.827 482.79 166.813 484.74 168.43C489.827 172.701 488.531 182.617 484.695 187.293C480.112 192.878 474.377 192.766 468.96 188.489C468.531 190.837 468.173 193.361 467.795 195.73L466.836 199.942C464.592 199.908 462.35 199.912 460.105 199.954C461.492 189.876 465.278 178.044 466.614 167.355C468.271 167.26 470.276 167.142 471.941 167.29C472.94 167.378 472.884 167.87 472.957 168.665C473.346 168.692 475.933 167.306 477.746 167.017ZM472.443 185.251C474.395 186.309 474.579 186.526 476.717 186.029C482.064 182.958 484.021 170.722 475.714 171.993C471.464 174.741 469.782 180.889 472.443 185.251Z" fill="#111415"/>
<path id="Vector_6" d="M248.504 167.28C250.27 167.228 252.359 167.112 254.091 167.267C254.729 167.694 254.545 167.675 254.767 168.667C255.531 169.074 257.029 167.551 257.935 167.325C265.355 165.479 269.127 168.944 269.725 176.074C269.536 179.845 269.291 183.39 266.787 186.451C263.282 192.436 255.95 193.279 250.97 188.4C250.154 191.148 249.371 196.669 248.571 199.953C246.282 199.909 244.215 199.854 241.924 200C242.119 198.347 242.427 196.521 242.788 194.893C244.818 185.712 246.621 176.491 248.504 167.28ZM258.129 186.182C260.868 184.681 261.514 183.452 262.52 180.457C263.135 178.63 263.423 175.658 262.474 173.911C261.993 173.005 261.166 172.33 260.182 172.039C259.312 171.782 258.386 171.874 257.506 172.012C256.961 172.381 255.874 173.104 255.438 173.605C252.881 176.532 250.933 185.629 256.629 186.271C257.075 186.322 257.68 186.322 258.129 186.182Z" fill="#111415"/>
<path id="Vector_7" d="M222.081 166.983C224.681 166.815 225.466 166.921 227.966 167.664C228.633 168.608 229.221 169.2 230.01 170.031C233.531 166.897 237.015 166.12 241.535 167.573C242.034 168.119 242.59 168.688 242.974 169.322C245.098 172.829 241.224 186.721 240.211 191.131C237.864 191.078 236.059 191.051 233.706 191.199C234.237 187.196 236.941 175.306 236.819 172.987C235.873 171.432 234.306 171.405 232.956 172.377C228.67 175.464 228.068 184.691 226.765 189.548L226.364 190.683C225.424 191.495 221.226 191.088 219.78 191.073C220.659 185.11 223.026 178.755 222.79 172.768C222.739 171.489 220.003 171.834 219.266 172.384C214.234 176.14 214.445 185.586 212.736 191.191C210.46 191.086 208.221 191.101 205.945 191.102C207.438 183.707 209.703 174.646 210.757 167.367C212.002 167.312 216.322 167.022 217.142 167.561C217.132 168.212 217.079 168.439 216.946 169.053C217.035 169.078 217.17 169.116 217.348 169.166C219.544 167.782 219.567 167.388 222.081 166.983Z" fill="#111415"/>
<path id="Vector_8" d="M375.646 167.034C378.826 166.766 382.337 166.709 385.149 168.425C387.295 169.723 388.819 171.842 389.363 174.29C391.134 181.92 386.937 189.565 379.114 191.337C375.52 191.672 371.924 191.755 368.872 189.457C363.495 185.421 364.391 176.356 368.07 171.502C370.045 168.895 372.416 167.463 375.646 167.034ZM376.597 186.326C383.404 184.637 386.337 172.525 378.463 172.003C376.864 172.381 375.926 172.54 374.759 173.855C372.01 176.942 370.032 184.272 375.24 186.055C375.803 186.247 375.969 186.364 376.597 186.326Z" fill="#111415"/>
<path id="Vector_9" d="M451.145 167.022C452.23 166.921 453.322 166.894 454.409 166.943C463.286 167.312 462.973 174.78 462.673 181.298C457.311 181.213 451.95 181.227 446.59 181.342C447.94 187.581 452.391 188.263 456 183.448C457.783 183.615 459.253 183.773 460.966 184.305L461.652 184.553C461.74 185.445 460.827 186.173 460.328 186.935C455.922 193.696 443.688 193.1 441.009 185.117C438.482 177.583 442.608 167.879 451.145 167.022ZM447.483 177.102L452.469 177.172C453.836 177.154 455.443 177.171 456.777 177.016C456.532 174.226 456.088 171.665 452.552 171.726C449.279 172.664 448.447 173.994 447.483 177.102Z" fill="#111415"/>
<path id="Vector_10" d="M271.792 173.673C274.385 166.305 280.644 166.015 287.696 167.593C288.975 167.879 290.495 169.464 290.949 170.675C292.937 177.587 287.825 183.5 289.855 191.081C288.445 191.062 284.125 191.18 283.204 190.945C282.861 190.32 282.803 190.128 282.601 189.459C281.121 189.168 271.623 196.408 269.464 185.865C269.283 183.821 269.669 182.449 270.234 180.502C273.87 174.745 284.886 178.174 285.239 173.987C283.497 169.609 279.742 172.49 277.419 174.273C275.444 174.127 273.729 173.877 271.792 173.673ZM276.831 186.091C281.209 186.915 282.856 184.577 283.583 180.651L283.303 180.353L283.113 180.363C281.131 180.704 275.179 181.274 275.674 184.322C275.795 185.072 276.233 185.629 276.831 186.091Z" fill="#111415"/>
<path id="Vector_11" d="M345.114 167.3C351.489 167.098 359.204 167.214 365.6 167.292C365.224 169.746 364.349 172.461 363.887 174.92C362.884 180.254 361.534 185.796 360.682 191.131L353.61 191.052C354.967 186.503 355.365 182.514 356.515 177.963C356.884 176.451 357.204 174.33 357.486 172.758C354.737 172.757 352.15 172.735 349.403 172.929C348.992 175.548 348.284 178.415 347.736 181.054C347.061 184.305 346.496 188.019 345.578 191.172C343.331 191.077 341.146 191.088 338.899 191.092C340.128 185.294 342.566 174.007 343.86 167.65C343.908 167.419 344.745 167.362 345.114 167.3Z" fill="#111415"/>
<path id="Vector_12" d="M395.002 167.295C396.97 167.295 398.937 167.273 400.904 167.228C400.258 169.975 399.411 173.24 399.058 175.989C401.625 175.938 404.445 176.015 407.035 176.032C407.643 173.113 408.283 170.202 408.959 167.297C410.926 167.193 413.451 167.316 415.534 167.262C414.515 172 413.481 176.732 412.429 181.463C411.774 184.414 411.494 187.908 410.677 190.788C409.955 191.287 409.945 191.108 408.878 191.092C407.622 191.073 404.652 191.299 403.865 190.39C404.636 188.931 405.542 183.202 405.9 181.306C403.206 181.238 400.382 181.279 397.678 181.28C397.292 184.833 396.642 187.87 395.429 191.223C393.118 191.089 391.235 191.082 388.929 191.108C390.241 185.875 391.393 180.603 392.385 175.301C392.833 173.03 393.3 170.179 393.82 167.892C393.913 167.489 394.523 167.436 395.002 167.295Z" fill="#111415"/>
<path id="Vector_13" d="M296.568 167.294C298.235 167.375 301.312 167.232 303.063 167.202C302.546 170.236 302.097 172.934 301.345 175.912C303.958 176 306.679 176.005 309.299 176.046C309.579 173.762 310.712 169.844 311.201 167.252L317.665 167.278C317.403 169.675 313.415 189.732 312.757 190.98L312.036 191.12C310.142 191.071 308.134 191.097 306.23 191.089L308.389 181.293C305.615 181.234 302.962 181.291 300.187 181.353C299.612 184.657 298.667 187.806 298.13 191.162C295.935 191.05 293.719 191.067 291.522 191.06C292.798 186.003 293.655 179.971 294.808 174.824C295.282 172.713 295.85 169.193 296.568 167.294Z" fill="#111415"/>
<path id="Vector_14" d="M328.136 167.027C333.813 166.497 338.204 167.251 340.133 173.231C340.393 174.043 340.401 173.845 340.048 174.64C339.266 175.246 339.001 175.254 338.081 175.446C332.467 176.618 333.839 173.719 331.889 172.277C330.346 171.724 329.135 172.265 327.634 172.778C325.279 175.279 323.738 179.392 324.076 182.847C324.265 184.776 325.783 186.521 327.882 186.011C330.451 185.387 330.62 184.303 331.939 182.324C332.805 181.862 332.89 182.032 333.97 182.074L338.935 182.9C337.566 186.788 334.338 190.486 330.023 191.305C317.103 193.757 314.195 180.852 320.169 171.901C321.993 169.172 324.817 167.565 328.136 167.027Z" fill="#111415"/>
<path id="Vector_15" d="M222.443 114.52C224.331 114.735 226.152 114.257 227.425 114.879C228.04 115.722 227.89 116.003 228 117.125C226.318 117.011 223.469 117.646 222.324 116.562C222.017 115.887 222.267 115.257 222.443 114.52Z" fill="#111415"/>
<path id="Vector_16" d="M273.845 114.645C274.397 115.165 274.248 115.593 274.316 116.522C273.411 117.386 270.486 117.079 269.088 117.049L268.738 116.873C268.493 115.98 268.44 115.564 269.083 114.884C270.15 114.482 272.521 114.665 273.845 114.645Z" fill="#111415"/>
<path id="Vector_17" d="M315.222 114.581C317.053 114.779 318.836 114.311 320.276 114.89C320.935 115.702 320.745 115.894 320.816 117.065C318.945 116.973 316.816 117.489 315.437 116.758C314.912 115.885 315.121 115.728 315.222 114.581Z" fill="#111415"/>
<path id="Vector_18" d="M230.013 114.605C231.948 114.812 233.555 114.248 235.257 115.027C235.927 115.86 235.73 115.762 235.889 116.982C233.92 116.985 231.863 117.561 230.296 116.733C229.803 115.898 229.981 115.67 230.013 114.605Z" fill="#111415"/>
<path id="Vector_19" d="M289.328 114.649C289.507 114.641 289.6 114.75 289.785 114.867C289.853 115.5 290.019 116.262 289.734 116.805C288.622 117.313 286.241 117.06 284.927 117.013C284.256 116.867 284.413 116.823 283.896 116.095C284.009 114.194 287.82 114.643 289.328 114.649Z" fill="#111415"/>
<path id="Vector_20" d="M281.477 114.658C281.704 114.661 281.724 114.768 281.943 114.982C282.092 115.793 282.236 116.174 281.87 116.909C281.051 117.207 278.148 117.048 277.106 117.026C276.587 116.911 276.776 117.001 276.385 116.514C276.385 115.903 276.337 115.584 276.642 115.04C277.724 114.392 280.14 114.629 281.477 114.658Z" fill="#111415"/>
<path id="Vector_21" d="M265.917 114.645C266.167 114.612 266.053 114.629 266.366 114.86C266.477 115.8 266.666 116.033 266.295 116.766C265.125 117.35 262.893 117.063 261.501 117.004C260.964 116.851 261.166 116.958 260.742 116.503C260.833 115.433 260.671 115.759 261.282 114.979C262.502 114.434 264.459 114.645 265.917 114.645Z" fill="#111415"/>
<path id="Vector_22" d="M292.186 114.656C293.856 114.723 295.936 114.373 297.248 114.944C297.813 115.694 297.661 115.982 297.734 117.019C295.83 116.939 293.858 117.512 292.347 116.733C291.835 115.885 292.047 115.784 292.186 114.656Z" fill="#111415"/>
<path id="Vector_23" d="M258.083 114.646L258.482 114.741C258.787 115.503 258.895 116.104 258.459 116.799C257.304 117.353 255.223 117.051 253.854 116.977C253.216 116.704 253.148 116.604 252.722 116.084L252.797 115.563C253.932 114.473 256.522 114.647 258.083 114.646Z" fill="#111415"/>
<path id="Vector_24" d="M498.092 114.641L498.337 114.875C498.519 115.991 498.678 115.874 498.282 116.745C497.106 117.395 494.751 117.052 493.336 116.969C493.165 116.877 492.99 116.654 492.847 116.501C492.864 115.562 492.716 115.654 493.172 115.003C494.284 114.509 496.781 114.647 498.092 114.641Z" fill="#111415"/>
<path id="Vector_25" d="M237.896 114.574C239.678 114.7 242.44 114.492 243.638 115.611C243.908 116.407 243.925 116.075 243.566 116.851C241.747 116.998 239.596 117.585 238.161 116.775C237.669 115.883 237.851 115.679 237.896 114.574Z" fill="#111415"/>
<path id="Vector_26" d="M374.287 114.658C374.405 114.677 374.602 114.878 374.718 114.974C374.766 115.579 374.879 116.261 374.66 116.813C373.79 117.29 371.043 117.055 369.941 117.016C369.404 116.866 369.593 116.994 369.248 116.494C369.291 115.468 369.134 115.697 369.674 114.967C370.872 114.431 372.872 114.644 374.287 114.658Z" fill="#111415"/>
<path id="Vector_27" d="M467.127 114.653L467.536 114.877C467.695 115.75 467.768 115.98 467.488 116.806C466.774 117.321 463.846 117.041 462.764 117.013C462.197 116.795 462.378 116.958 462.101 116.381C462.227 115.395 462.063 115.64 462.638 114.932C463.7 114.439 465.821 114.646 467.127 114.653Z" fill="#111415"/>
<path id="Vector_28" d="M485.459 114.665C487.098 114.757 488.965 114.328 490.309 114.921C491.06 115.712 490.881 115.794 491.093 116.988C489.209 116.964 486.929 117.547 485.515 116.64C485.111 115.732 485.283 115.817 485.459 114.665Z" fill="#111415"/>
<path id="Vector_29" d="M299.984 114.6C301.746 114.8 303.587 114.318 304.929 114.94C305.613 115.699 305.429 115.84 305.537 116.99C303.603 116.947 301.746 117.515 300.195 116.74C299.704 115.89 299.9 115.696 299.984 114.6Z" fill="#111415"/>
<path id="Vector_30" d="M366.48 114.68L366.864 114.974L366.992 116.532L366.647 116.881C365.464 117.209 363.225 117.066 361.913 117.038C361.51 116.808 361.318 116.214 361.265 115.778C362.158 114.233 364.839 114.643 366.48 114.68Z" fill="#111415"/>
<path id="Vector_31" d="M459.296 114.678C459.457 114.681 459.571 114.842 459.727 114.981C459.861 115.752 460.025 116.222 459.657 116.905C458.852 117.199 456.166 117.066 455.157 117.051L454.618 116.922L454.393 116.512C454.479 115.348 454.3 115.655 454.943 114.86C455.901 114.42 458.05 114.662 459.296 114.678Z" fill="#111415"/>
<path id="Vector_32" d="M377.28 114.636C378.954 114.759 380.863 114.355 382.155 114.938C382.705 115.688 382.546 115.995 382.596 117.033C380.803 116.935 378.748 117.49 377.411 116.725C376.929 115.887 377.141 115.732 377.28 114.636Z" fill="#111415"/>
<path id="Vector_33" d="M307.684 114.663C309.119 114.67 311.314 114.424 312.436 114.927C313.092 115.699 312.955 115.943 313.132 117.03C311.268 116.971 309.061 117.528 307.715 116.63C307.336 115.73 307.505 115.789 307.684 114.663Z" fill="#111415"/>
<path id="Vector_34" d="M353.922 114.721C355.579 114.737 357.755 114.205 358.969 115.063C359.324 115.689 359.175 116.317 359.102 117.045C357.296 116.957 355.294 117.521 353.955 116.642C353.569 115.75 353.733 115.847 353.922 114.721Z" fill="#111415"/>
<path id="Vector_35" d="M446.77 114.733C448.379 114.696 450.271 114.321 451.61 114.935C452.18 115.712 452.051 116.03 452.165 117.065C450.309 116.962 448.422 117.48 446.942 116.704C446.447 115.879 446.644 115.855 446.77 114.733Z" fill="#111415"/>
<path id="Vector_36" d="M470.205 114.621C471.91 114.839 473.806 114.291 475.14 114.979C475.589 115.841 475.42 115.928 475.365 116.999C473.567 116.958 471.479 117.558 470.21 116.64C469.847 115.774 470.036 115.661 470.205 114.621Z" fill="#111415"/>
<path id="Vector_37" d="M322.974 114.615C324.704 114.865 326.397 114.244 327.94 115.157C328.5 115.828 328.477 116.007 328.523 116.896C326.742 117.026 324.664 117.526 323.189 116.722C322.725 115.893 322.911 115.662 322.974 114.615Z" fill="#111415"/>
<path id="Vector_38" d="M350.868 114.654L350.954 114.662C351.458 115.151 351.314 115.668 351.365 116.534L351.004 116.901C349.829 117.207 347.667 117.024 346.371 116.972C346.028 116.719 345.96 116.429 345.794 116.03C346.127 114.237 349.362 114.652 350.868 114.654Z" fill="#111415"/>
<path id="Vector_39" d="M408.048 114.797C409.675 114.696 411.551 114.358 412.969 114.999C413.645 115.839 413.461 115.804 413.627 116.993C411.763 116.944 409.92 117.487 408.356 116.704C407.816 115.875 408 115.985 408.048 114.797Z" fill="#111415"/>
<path id="Vector_40" d="M443.865 114.655C444.261 114.997 444.208 115.886 444.271 116.529L443.933 116.891C442.771 117.207 440.66 117.034 439.378 116.987C438.955 116.767 438.836 116.424 438.597 115.992C439.177 114.284 442.271 114.656 443.865 114.655Z" fill="#111415"/>
<path id="Vector_41" d="M478.027 114.666C479.611 114.745 481.475 114.348 482.721 114.948C483.387 115.698 483.208 115.861 483.303 116.992C481.46 116.943 479.387 117.545 478.032 116.648C477.649 115.785 477.838 115.725 478.027 114.666Z" fill="#111415"/>
<path id="Vector_42" d="M385.104 114.647C386.697 114.719 388.667 114.416 389.946 115.032C390.536 115.837 390.357 115.869 390.415 116.992C388.581 116.935 386.723 117.503 385.245 116.726C384.756 115.885 384.965 115.749 385.104 114.647Z" fill="#111415"/>
<path id="Vector_43" d="M415.962 114.679C417.715 114.794 419.291 114.311 420.835 115.163C421.458 116.074 421.286 115.727 421.402 116.913C419.647 117.002 417.604 117.5 416.141 116.748C415.67 115.872 415.861 115.801 415.962 114.679Z" fill="#111415"/>
<path id="Vector_44" d="M245.816 114.573C247.503 114.82 249.112 114.326 250.393 114.933C251.004 115.74 250.866 115.976 251.001 117.056C249.163 116.946 247.097 117.538 245.838 116.626C245.474 115.736 245.659 115.627 245.816 114.573Z" fill="#111415"/>
<path id="Vector_45" d="M392.885 114.607C394.199 114.658 396.468 114.513 397.472 114.957C398.158 115.703 398.019 115.899 398.224 116.983C396.494 116.958 394.471 117.483 393.112 116.76C392.585 115.884 392.789 115.754 392.885 114.607Z" fill="#111415"/>
<path id="Vector_46" d="M400.623 114.66C402.532 114.827 404.184 114.128 405.505 115.225C405.697 115.999 405.629 116.259 405.518 117.054C403.876 117.01 401.836 117.453 400.613 116.635C400.237 115.766 400.426 115.721 400.623 114.66Z" fill="#111415"/>
<path id="Vector_47" d="M343.04 114.676C343.194 114.682 343.325 114.846 343.476 114.974C343.532 115.645 343.676 116.281 343.325 116.83C342.311 117.3 340.225 117.05 338.985 117.011C338.553 116.792 338.412 116.445 338.155 116.021C338.599 114.256 341.557 114.662 343.04 114.676Z" fill="#111415"/>
<path id="Vector_48" d="M436.065 114.674L436.222 114.767C436.58 115.597 436.497 116.241 435.98 116.92C435.041 117.298 433.036 117.029 431.803 117.008C431.402 116.755 431.301 116.459 431.077 116.035C431.422 114.188 434.517 114.659 436.065 114.674Z" fill="#111415"/>
<path id="Vector_49" d="M330.782 114.593C332.499 114.857 333.987 114.267 335.397 115.037C335.944 115.618 335.894 116.206 335.955 117.013C334.346 116.986 332.328 117.429 331.087 116.776C330.542 115.881 330.734 115.747 330.782 114.593Z" fill="#111415"/>
<path id="Vector_50" d="M423.626 114.611C424.938 114.673 427.162 114.513 428.123 114.94C428.832 115.718 428.683 115.846 428.908 116.949C427.215 117.047 425.389 117.462 423.967 116.739C423.447 115.893 423.621 115.694 423.626 114.611Z" fill="#111415"/>
<path id="Vector_51" d="M269.723 176.074C270.399 176.989 269.524 179.493 270.23 180.502C269.665 182.449 269.28 183.821 269.461 185.865L268.952 186.836C268.102 187.102 267.557 186.995 266.785 186.451C269.29 183.39 269.534 179.845 269.723 176.074Z" fill="#111415" fill-opacity="0.0156863"/>
<path id="Vector_52" d="M51.0133 0H180.953C192.892 6.43924 188.44 15.2572 185.98 26.0234L181.748 45.1368L168.683 104.682C176.184 104.792 183.345 104.361 191.014 104.787C189.976 107.923 189.413 113.07 188.792 116.434C188.132 120.013 187.337 123.739 186.811 127.309C182.132 127.235 177.453 127.202 172.774 127.21C170.621 127.199 166.383 127.225 164.379 126.959C161.154 143.128 157.708 159.252 154.043 175.327C151.418 186.934 151.814 198.443 139.502 203.735C139.172 203.877 137.157 204.827 136.908 205H88.8483C89.3259 202.6 91.2336 192.946 92.4608 191.427C94.3412 190.516 112.599 190.835 115.775 190.925C112.284 189.187 105.359 182.692 102.165 179.943C96.0324 174.666 89.822 169.012 83.5823 163.879C83.2767 165.889 83.1871 169.359 81.1655 170.283C80.3184 170.677 79.3454 170.698 78.4819 170.342C76.2814 169.454 78.9656 166.763 78.235 165.068C76.1402 165.374 71.9267 168.573 69.8158 169.773C61.4218 174.546 53.211 179.832 44.8357 184.595C42.5243 185.909 36.9633 189.376 34.7826 190.177L34.6706 190.217L34.5404 190.499C36.005 191.226 53.7257 190.879 56.6212 190.879C56.3993 193.067 54.1923 202.847 53.4135 205H7.90117C3.64857 202.263 2.32131 202.584 0 197.233V189.5C0.473471 188.257 1.78654 181.341 2.18944 179.558C4.74081 168.265 7.02138 156.771 9.42284 145.439L31.6028 42.8261C32.2762 39.8182 32.6318 36.488 33.4151 33.557C35.41 26.095 36.2955 17.8931 38.8266 10.6705C40.9912 4.49346 45.3674 2.41807 51.0133 0ZM142.99 126.878C149.685 126.848 156.834 126.956 163.498 126.809C164.462 125.48 167.372 108.113 167.943 105.256C163.851 104.99 159.414 105.175 155.3 105.157C153.019 105.147 150.179 105.383 147.987 104.955C145.973 112.227 144.882 119.673 142.99 126.878ZM63.9817 161.941C67.7006 159.429 79.1668 151.145 84.1493 150.342C85.3152 150.154 89.9605 154.98 91.0376 155.931C91.3624 156.218 92.6146 156.979 92.8799 157.209C94.8481 159.329 97.0455 161.224 99.4318 162.859C101.628 149.337 105.482 134.533 108.54 121.082L116.793 84.9986C117.588 81.5774 118.177 78.2273 119.036 74.7889C107.322 74.8421 95.6079 74.7748 83.8953 74.5872C81.7342 85.1254 79.2089 95.2844 76.8173 105.712L67.0514 149.393C66.1231 153.65 64.8215 157.577 63.9817 161.941ZM52.097 49.4902C51.4262 52.1129 46.2193 73.9019 46.5645 74.767C46.759 74.7501 47.2445 74.7201 47.4104 74.6873C54.2657 74.3474 59.3669 73.4931 65.8636 72.8905L106.936 68.9145C112.098 68.3883 117.305 68.2342 122.468 67.5834C133.535 66.1883 144.943 65.5947 155.985 64.1025C157.007 61.3865 157.668 56.5908 158.355 53.5277C159.356 49.0664 161.141 43.4935 161.54 39.0516C161.026 38.7674 160.657 38.8638 160.08 38.9223C143.74 40.9304 126.919 42.3457 110.497 44.0026L52.097 49.4902Z" fill="#F25E2D"/>
<path id="Vector_53" d="M168.684 104.682C176.185 104.792 183.346 104.361 191.015 104.787C189.977 107.923 189.414 113.07 188.793 116.434C188.133 120.013 187.338 123.739 186.812 127.309C182.133 127.235 177.454 127.202 172.775 127.21C170.622 127.199 166.384 127.225 164.38 126.959L163.499 126.809C164.463 125.48 167.373 108.113 167.944 105.256C163.851 104.99 159.415 105.175 155.301 105.157C153.02 105.147 150.18 105.383 147.988 104.955C150.55 104.943 167.657 105.175 168.684 104.682Z" fill="#111415"/>
<path id="Vector_54" d="M473.994 54.9784C474.425 59.292 475.908 63.1537 480.586 64.4364C485.562 65.8013 494.871 65.681 496.492 59.3036C497.93 53.5227 488.457 51.0864 484.334 50.0097C471.925 46.7708 461.956 41.7986 465.57 26.9857C467.429 19.3572 475.237 14.6384 482.712 13.3224C492.031 11.6812 503.788 11.937 511.493 18.0897C513.952 20.0543 515.041 23.1551 516.502 25.8081V32.3285C511.435 32.1972 505.851 32.3187 500.744 32.326C500.585 26.4655 497.862 24.0176 492.122 23.7728C487.761 23.5868 482.18 24.7206 481.824 30.0849C481.728 31.5269 482.674 33.1407 483.882 33.9406C491.834 38.4521 502.401 37.892 509.201 44.7289C515.644 51.0998 514.25 63.3713 507.993 69.3639C497.887 79.0453 473.232 80.094 463.073 69.8695C459.134 65.9064 458.065 60.4214 458.173 54.9786C461.812 55.2772 470.082 55.05 473.994 54.9784Z" fill="#111415"/>
<path id="Vector_55" d="M78.6839 178.64C79.4836 178.571 79.2831 178.481 79.9446 178.801C80.3973 180.279 79.0821 186.49 78.0733 187.434C77.1727 187.919 76.1291 187.774 75.093 187.74C74.777 187.808 74.4888 187.667 74.1695 187.562C73.0348 186.184 74.4139 180.314 75.9772 179.143C76.8236 178.509 77.7078 178.634 78.6839 178.64Z" fill="#F25E2D"/>
<path id="Vector_56" d="M72.1135 195.688L76.5971 195.655C76.0556 197.924 74.9813 203.011 74.2496 205H69.5428C70.0732 202.042 70.3723 197.935 72.1135 195.688Z" fill="#F25E2D"/>
</g>
<defs>
<clipPath id="clip0_0_4">
<rect width="516.504" height="205" fill="white"/>
</clipPath>
</defs>
</svg>
